<svg version="1.1" id="Layer_1" xmlns="http://www.w3.org/2000/svg" xmlns:xlink="http://www.w3.org/1999/xlink" x="0px" y="0px"
	 width="100%" viewBox="0 0 981 974" enable-background="new 0 0 981 974" xml:space="preserve">
<path fill="#1a56f3" opacity="1.000000" stroke="none" 
	d="
M982.000000,883.000000 
	C982.000000,890.354248 982.000000,897.708496 981.636353,905.673462 
	C976.446899,935.029419 959.864380,954.196594 933.289062,965.257019 
	C918.482300,971.419617 902.932129,973.659912 886.592957,974.082886 
	C624.240662,973.988831 362.339294,973.994324 100.437889,974.007141 
	C98.944664,974.007202 97.451439,974.109924 95.505569,974.104431 
	C82.778282,972.053162 70.115234,971.362122 58.300499,967.831909 
	C20.160259,956.435852 -0.650709,926.037048 2.203455,887.407166 
	C3.586735,868.684998 10.170642,851.552429 18.742556,835.010925 
	C152.588760,576.723877 286.344299,318.389862 420.318329,60.169167 
	C425.795654,49.612225 432.510040,39.506664 439.888000,30.170710 
	C451.072113,16.018517 465.217529,5.711052 483.569977,2.424491 
	C485.406128,2.095670 487.191223,1.481653 489.000000,1.000000 
	C490.388885,1.000000 491.777802,1.000000 493.738617,1.383702 
	C510.156036,2.749218 523.278198,9.726287 534.778442,20.217703 
	C547.259827,31.604206 556.188904,45.567772 563.888733,60.429897 
	C696.217407,315.849915 828.588562,571.247986 960.788452,826.734619 
	C967.095337,838.923218 972.208191,851.766052 977.278076,864.541870 
	C979.601685,870.397095 980.471069,876.829407 982.000000,883.000000 
M442.943207,618.498291 
	C442.958862,622.496826 442.907104,626.497009 443.000854,630.493713 
	C443.730713,661.603516 474.031769,684.338074 504.178101,676.416077 
	C526.861572,670.455200 541.097778,651.481689 541.109924,626.890625 
	C541.149841,546.253296 541.130249,465.615936 541.122192,384.978577 
	C541.119202,355.156372 541.445007,325.328400 540.967957,295.513519 
	C540.441101,262.583588 507.252625,239.947128 476.076263,250.735794 
	C455.473999,257.865234 442.958923,276.049622 442.953735,299.114777 
	C442.929901,405.242859 442.943237,511.370941 442.943207,618.498291 
M438.425079,774.020325 
	C430.989288,787.543701 428.971283,801.886108 431.997498,816.967102 
	C438.326233,848.506165 470.982452,870.565857 502.343689,864.510620 
	C536.028748,858.006714 558.430237,826.773743 552.684204,794.323853 
	C547.987549,767.799683 528.547852,748.281433 501.924103,743.358826 
	C477.650665,738.870789 452.260986,750.972534 438.425079,774.020325 
z"/>
<path fill="#FFFFFF" opacity="1.000000" stroke="none" 
	d="
M488.531342,1.000000 
	C487.191223,1.481653 485.406128,2.095670 483.569977,2.424491 
	C465.217529,5.711052 451.072113,16.018517 439.888000,30.170710 
	C432.510040,39.506664 425.795654,49.612225 420.318329,60.169167 
	C286.344299,318.389862 152.588760,576.723877 18.742556,835.010925 
	C10.170642,851.552429 3.586735,868.684998 2.203455,887.407166 
	C-0.650709,926.037048 20.160259,956.435852 58.300499,967.831909 
	C70.115234,971.362122 82.778282,972.053162 95.521637,974.312988 
	C95.990341,974.581848 96.000000,975.000000 96.000000,975.000000 
	C64.342224,975.000000 32.684448,975.000000 1.020003,975.000000 
	C1.013335,650.433350 1.013335,325.866730 1.013335,1.000000 
	C163.354111,1.000000 325.708405,1.000000 488.531342,1.000000 
z"/>
<path fill="#FFFFFF" opacity="1.000000" stroke="none" 
	d="
M982.000000,882.531372 
	C980.471069,876.829407 979.601685,870.397095 977.278076,864.541870 
	C972.208191,851.766052 967.095337,838.923218 960.788452,826.734619 
	C828.588562,571.247986 696.217407,315.849915 563.888733,60.429897 
	C556.188904,45.567772 547.259827,31.604206 534.778442,20.217703 
	C523.278198,9.726287 510.156036,2.749218 494.155273,1.383702 
	C656.614746,1.000000 819.229431,1.000000 982.000000,1.000000 
	C982.000000,294.687531 982.000000,588.375122 982.000000,882.531372 
z"/>
<path fill="#FDFDFD" opacity="1.000000" stroke="none" 
	d="
M887.043823,974.182739 
	C902.932129,973.659912 918.482300,971.419617 933.289062,965.257019 
	C959.864380,954.196594 976.446899,935.029419 981.636353,906.142090 
	C982.000000,928.938477 982.000000,951.876953 982.000000,975.000000 
	C950.645996,975.000000 919.291687,975.000000 887.480957,974.795776 
	C887.024597,974.591492 887.043823,974.182739 887.043823,974.182739 
z"/>
<path fill="#CCCCCC" opacity="1.000000" stroke="none" 
	d="
M886.592957,974.082886 
	C887.043823,974.182739 887.024597,974.591492 887.012329,974.795776 
	C623.637329,975.000000 360.274597,975.000000 96.455948,975.000000 
	C96.000000,975.000000 95.990341,974.581848 95.974274,974.373291 
	C97.451439,974.109924 98.944664,974.007202 100.437889,974.007141 
	C362.339294,973.994324 624.240662,973.988831 886.592957,974.082886 
z"/>
<path fill="#FFFFFF" opacity="1.000000" stroke="none" 
	d="
M442.943207,617.998657 
	C442.943237,511.370941 442.929901,405.242859 442.953735,299.114777 
	C442.958923,276.049622 455.473999,257.865234 476.076263,250.735794 
	C507.252625,239.947128 540.441101,262.583588 540.967957,295.513519 
	C541.445007,325.328400 541.119202,355.156372 541.122192,384.978577 
	C541.130249,465.615936 541.149841,546.253296 541.109924,626.890625 
	C541.097778,651.481689 526.861572,670.455200 504.178101,676.416077 
	C474.031769,684.338074 443.730713,661.603516 443.000854,630.493713 
	C442.907104,626.497009 442.958862,622.496826 442.943207,617.998657 
z"/>
<path fill="#FEFEFE" opacity="1.000000" stroke="none" 
	d="
M438.640686,773.719849 
	C452.260986,750.972534 477.650665,738.870789 501.924103,743.358826 
	C528.547852,748.281433 547.987549,767.799683 552.684204,794.323853 
	C558.430237,826.773743 536.028748,858.006714 502.343689,864.510620 
	C470.982452,870.565857 438.326233,848.506165 431.997498,816.967102 
	C428.971283,801.886108 430.989288,787.543701 438.640686,773.719849 
z"/>
</svg>